<svg xmlns="http://www.w3.org/2000/svg" xmlns:xlink="http://www.w3.org/1999/xlink" width="500" zoomAndPan="magnify" viewBox="0 0 375 374.999991" height="500" preserveAspectRatio="xMidYMid meet" version="1.0"><defs><g/><clipPath id="cac04f9ef0"><path d="M 157 9.753906 L 165 9.753906 L 165 25 L 157 25 Z M 157 9.753906 " clip-rule="nonzero"/></clipPath><clipPath id="6e2675768b"><path d="M 74.777344 114 L 88 114 L 88 122 L 74.777344 122 Z M 74.777344 114 " clip-rule="nonzero"/></clipPath><clipPath id="f5199ce24e"><path d="M 80.429688 12.339844 L 300.429688 12.339844 L 300.429688 251.101562 L 80.429688 251.101562 Z M 80.429688 12.339844 " clip-rule="nonzero"/></clipPath></defs><rect x="-37.5" width="450" fill="#ffffff" y="-37.499999" height="449.999989" fill-opacity="1"/><rect x="-37.5" width="450" fill="#ffffff" y="-37.499999" height="449.999989" fill-opacity="1"/><rect x="-37.5" width="450" fill="#ffffff" y="-37.499999" height="449.999989" fill-opacity="1"/><g fill="#284030" fill-opacity="1"><g transform="translate(13.357553, 328.847335)"><g><path d="M 14.90625 -28.609375 C 16.457031 -28.609375 17.734375 -28.390625 18.734375 -27.953125 C 19.742188 -27.515625 20.84375 -26.875 22.03125 -26.03125 C 22.375 -25.769531 22.640625 -25.640625 22.828125 -25.640625 C 23.328125 -25.640625 23.65625 -26.441406 23.8125 -28.046875 L 24.71875 -28.046875 C 24.613281 -26.335938 24.5625 -23.300781 24.5625 -18.9375 L 23.65625 -18.9375 C 23.414062 -20.34375 23.160156 -21.5 22.890625 -22.40625 C 22.628906 -23.320312 22.222656 -24.125 21.671875 -24.8125 C 20.910156 -25.757812 19.914062 -26.507812 18.6875 -27.0625 C 17.457031 -27.613281 16.164062 -27.890625 14.8125 -27.890625 C 13.070312 -27.890625 11.539062 -27.320312 10.21875 -26.1875 C 8.894531 -25.050781 7.878906 -23.429688 7.171875 -21.328125 C 6.460938 -19.234375 6.109375 -16.785156 6.109375 -13.984375 C 6.109375 -9.234375 6.863281 -5.753906 8.375 -3.546875 C 9.894531 -1.335938 12.28125 -0.234375 15.53125 -0.234375 C 17.113281 -0.234375 18.488281 -0.644531 19.65625 -1.46875 C 20.132812 -1.78125 20.441406 -2.085938 20.578125 -2.390625 C 20.722656 -2.703125 20.796875 -3.117188 20.796875 -3.640625 L 20.796875 -7.453125 C 20.796875 -8.554688 20.691406 -9.359375 20.484375 -9.859375 C 20.273438 -10.367188 19.90625 -10.710938 19.375 -10.890625 C 18.84375 -11.078125 17.984375 -11.195312 16.796875 -11.25 L 16.796875 -12.046875 C 18.171875 -11.960938 20.035156 -11.921875 22.390625 -11.921875 C 24.179688 -11.921875 25.554688 -11.960938 26.515625 -12.046875 L 26.515625 -11.25 C 25.898438 -11.195312 25.453125 -11.09375 25.171875 -10.9375 C 24.898438 -10.78125 24.71875 -10.472656 24.625 -10.015625 C 24.53125 -9.566406 24.484375 -8.84375 24.484375 -7.84375 L 24.484375 0 L 23.703125 0 C 23.671875 -0.53125 23.5625 -1.039062 23.375 -1.53125 C 23.1875 -2.019531 22.9375 -2.265625 22.625 -2.265625 C 22.46875 -2.265625 22.304688 -2.222656 22.140625 -2.140625 C 21.984375 -2.054688 21.707031 -1.867188 21.3125 -1.578125 C 20.394531 -0.867188 19.4375 -0.335938 18.4375 0.015625 C 17.445312 0.378906 16.347656 0.5625 15.140625 0.5625 C 12.421875 0.5625 10.085938 0 8.140625 -1.125 C 6.203125 -2.25 4.71875 -3.867188 3.6875 -5.984375 C 2.65625 -8.097656 2.140625 -10.617188 2.140625 -13.546875 C 2.140625 -16.554688 2.6875 -19.203125 3.78125 -21.484375 C 4.875 -23.773438 6.382812 -25.535156 8.3125 -26.765625 C 10.25 -27.992188 12.445312 -28.609375 14.90625 -28.609375 Z M 14.90625 -28.609375 "/></g></g></g><g fill="#284030" fill-opacity="1"><g transform="translate(49.14041, 328.847335)"><g><path d="M 26.15625 -1.984375 C 25.539062 -1.085938 24.929688 -0.4375 24.328125 -0.03125 C 23.722656 0.363281 22.914062 0.5625 21.90625 0.5625 C 20.820312 0.5625 19.929688 0.242188 19.234375 -0.390625 C 18.535156 -1.023438 18.015625 -2.132812 17.671875 -3.71875 L 16.796875 -7.6875 C 16.484375 -9.0625 16.1875 -10.117188 15.90625 -10.859375 C 15.632812 -11.597656 15.21875 -12.191406 14.65625 -12.640625 C 14.101562 -13.085938 13.328125 -13.3125 12.328125 -13.3125 L 8.5625 -13.3125 L 8.5625 -4.203125 C 8.5625 -3.191406 8.640625 -2.460938 8.796875 -2.015625 C 8.953125 -1.566406 9.25 -1.265625 9.6875 -1.109375 C 10.125 -0.953125 10.816406 -0.847656 11.765625 -0.796875 L 11.765625 0 C 10.554688 -0.0820312 8.878906 -0.125 6.734375 -0.125 C 4.460938 -0.125 2.773438 -0.0820312 1.671875 0 L 1.671875 -0.796875 C 2.617188 -0.847656 3.304688 -0.953125 3.734375 -1.109375 C 4.171875 -1.265625 4.46875 -1.566406 4.625 -2.015625 C 4.789062 -2.460938 4.875 -3.191406 4.875 -4.203125 L 4.875 -23.859375 C 4.875 -24.859375 4.789062 -25.582031 4.625 -26.03125 C 4.46875 -26.476562 4.171875 -26.78125 3.734375 -26.9375 C 3.304688 -27.101562 2.617188 -27.210938 1.671875 -27.265625 L 1.671875 -28.046875 C 2.773438 -27.972656 4.382812 -27.9375 6.5 -27.9375 L 10.78125 -27.96875 C 11.28125 -28 11.847656 -28.015625 12.484375 -28.015625 C 15.546875 -28.015625 17.898438 -27.375 19.546875 -26.09375 C 21.203125 -24.8125 22.03125 -23.15625 22.03125 -21.125 C 22.03125 -20.09375 21.785156 -19.050781 21.296875 -18 C 20.804688 -16.957031 19.988281 -16.019531 18.84375 -15.1875 C 17.695312 -14.363281 16.195312 -13.804688 14.34375 -13.515625 L 14.8125 -13.4375 C 16.5625 -13.144531 17.832031 -12.613281 18.625 -11.84375 C 19.414062 -11.082031 20 -9.867188 20.375 -8.203125 L 21.359375 -4.15625 C 21.617188 -2.945312 21.894531 -2.101562 22.1875 -1.625 C 22.476562 -1.144531 22.875 -0.90625 23.375 -0.90625 C 23.820312 -0.90625 24.195312 -1.023438 24.5 -1.265625 C 24.8125 -1.503906 25.164062 -1.890625 25.5625 -2.421875 Z M 11.484375 -27.265625 C 10.671875 -27.265625 10.054688 -27.171875 9.640625 -26.984375 C 9.234375 -26.796875 8.953125 -26.460938 8.796875 -25.984375 C 8.640625 -25.515625 8.5625 -24.804688 8.5625 -23.859375 L 8.5625 -14.109375 L 11.21875 -14.109375 C 13.832031 -14.109375 15.625 -14.6875 16.59375 -15.84375 C 17.570312 -17.007812 18.0625 -18.625 18.0625 -20.6875 C 18.0625 -22.851562 17.546875 -24.488281 16.515625 -25.59375 C 15.492188 -26.707031 13.816406 -27.265625 11.484375 -27.265625 Z M 11.484375 -27.265625 "/></g></g></g><g fill="#284030" fill-opacity="1"><g transform="translate(82.743889, 328.847335)"><g><path d="M 21.953125 -5.078125 C 21.953125 -3.566406 22.046875 -1.875 22.234375 0 C 20.429688 -0.0820312 17.40625 -0.125 13.15625 -0.125 C 8.082031 -0.125 4.253906 -0.0820312 1.671875 0 L 1.671875 -0.796875 C 2.617188 -0.847656 3.304688 -0.953125 3.734375 -1.109375 C 4.171875 -1.265625 4.46875 -1.566406 4.625 -2.015625 C 4.789062 -2.460938 4.875 -3.191406 4.875 -4.203125 L 4.875 -23.859375 C 4.875 -24.859375 4.789062 -25.582031 4.625 -26.03125 C 4.46875 -26.476562 4.171875 -26.78125 3.734375 -26.9375 C 3.304688 -27.101562 2.617188 -27.210938 1.671875 -27.265625 L 1.671875 -28.046875 C 4.253906 -27.972656 8.082031 -27.9375 13.15625 -27.9375 C 17.039062 -27.9375 19.800781 -27.972656 21.4375 -28.046875 C 21.25 -26.304688 21.15625 -24.75 21.15625 -23.375 C 21.15625 -22.34375 21.195312 -21.523438 21.28125 -20.921875 L 20.375 -20.921875 C 20.1875 -22.640625 19.945312 -23.914062 19.65625 -24.75 C 19.363281 -25.582031 18.875 -26.1875 18.1875 -26.5625 C 17.5 -26.945312 16.457031 -27.140625 15.0625 -27.140625 L 11.765625 -27.140625 C 10.816406 -27.140625 10.125 -27.066406 9.6875 -26.921875 C 9.25 -26.773438 8.953125 -26.476562 8.796875 -26.03125 C 8.640625 -25.582031 8.5625 -24.859375 8.5625 -23.859375 L 8.5625 -14.5 L 11.171875 -14.5 C 12.097656 -14.5 12.8125 -14.71875 13.3125 -15.15625 C 13.8125 -15.59375 14.144531 -16.109375 14.3125 -16.703125 C 14.488281 -17.296875 14.628906 -18.039062 14.734375 -18.9375 L 14.859375 -19.734375 L 15.765625 -19.734375 C 15.691406 -18.617188 15.65625 -17.378906 15.65625 -16.015625 L 15.65625 -14.109375 C 15.65625 -12.753906 15.734375 -10.878906 15.890625 -8.484375 L 14.984375 -8.484375 C 14.953125 -8.660156 14.867188 -9.296875 14.734375 -10.390625 C 14.609375 -11.492188 14.25 -12.320312 13.65625 -12.875 C 13.0625 -13.425781 12.234375 -13.703125 11.171875 -13.703125 L 8.5625 -13.703125 L 8.5625 -4.203125 C 8.5625 -3.191406 8.640625 -2.460938 8.796875 -2.015625 C 8.953125 -1.566406 9.25 -1.269531 9.6875 -1.125 C 10.125 -0.976562 10.816406 -0.90625 11.765625 -0.90625 L 14.65625 -0.90625 C 16.300781 -0.90625 17.550781 -1.125 18.40625 -1.5625 C 19.257812 -2 19.882812 -2.695312 20.28125 -3.65625 C 20.675781 -4.625 20.96875 -6.046875 21.15625 -7.921875 L 22.078125 -7.921875 C 21.992188 -7.210938 21.953125 -6.265625 21.953125 -5.078125 Z M 21.953125 -5.078125 "/></g></g></g><g fill="#284030" fill-opacity="1"><g transform="translate(114.801996, 328.847335)"><g><path d="M 21.953125 -5.078125 C 21.953125 -3.566406 22.046875 -1.875 22.234375 0 C 20.429688 -0.0820312 17.40625 -0.125 13.15625 -0.125 C 8.082031 -0.125 4.253906 -0.0820312 1.671875 0 L 1.671875 -0.796875 C 2.617188 -0.847656 3.304688 -0.953125 3.734375 -1.109375 C 4.171875 -1.265625 4.46875 -1.566406 4.625 -2.015625 C 4.789062 -2.460938 4.875 -3.191406 4.875 -4.203125 L 4.875 -23.859375 C 4.875 -24.859375 4.789062 -25.582031 4.625 -26.03125 C 4.46875 -26.476562 4.171875 -26.78125 3.734375 -26.9375 C 3.304688 -27.101562 2.617188 -27.210938 1.671875 -27.265625 L 1.671875 -28.046875 C 4.253906 -27.972656 8.082031 -27.9375 13.15625 -27.9375 C 17.039062 -27.9375 19.800781 -27.972656 21.4375 -28.046875 C 21.25 -26.304688 21.15625 -24.75 21.15625 -23.375 C 21.15625 -22.34375 21.195312 -21.523438 21.28125 -20.921875 L 20.375 -20.921875 C 20.1875 -22.640625 19.945312 -23.914062 19.65625 -24.75 C 19.363281 -25.582031 18.875 -26.1875 18.1875 -26.5625 C 17.5 -26.945312 16.457031 -27.140625 15.0625 -27.140625 L 11.765625 -27.140625 C 10.816406 -27.140625 10.125 -27.066406 9.6875 -26.921875 C 9.25 -26.773438 8.953125 -26.476562 8.796875 -26.03125 C 8.640625 -25.582031 8.5625 -24.859375 8.5625 -23.859375 L 8.5625 -14.5 L 11.171875 -14.5 C 12.097656 -14.5 12.8125 -14.71875 13.3125 -15.15625 C 13.8125 -15.59375 14.144531 -16.109375 14.3125 -16.703125 C 14.488281 -17.296875 14.628906 -18.039062 14.734375 -18.9375 L 14.859375 -19.734375 L 15.765625 -19.734375 C 15.691406 -18.617188 15.65625 -17.378906 15.65625 -16.015625 L 15.65625 -14.109375 C 15.65625 -12.753906 15.734375 -10.878906 15.890625 -8.484375 L 14.984375 -8.484375 C 14.953125 -8.660156 14.867188 -9.296875 14.734375 -10.390625 C 14.609375 -11.492188 14.25 -12.320312 13.65625 -12.875 C 13.0625 -13.425781 12.234375 -13.703125 11.171875 -13.703125 L 8.5625 -13.703125 L 8.5625 -4.203125 C 8.5625 -3.191406 8.640625 -2.460938 8.796875 -2.015625 C 8.953125 -1.566406 9.25 -1.269531 9.6875 -1.125 C 10.125 -0.976562 10.816406 -0.90625 11.765625 -0.90625 L 14.65625 -0.90625 C 16.300781 -0.90625 17.550781 -1.125 18.40625 -1.5625 C 19.257812 -2 19.882812 -2.695312 20.28125 -3.65625 C 20.675781 -4.625 20.96875 -6.046875 21.15625 -7.921875 L 22.078125 -7.921875 C 21.992188 -7.210938 21.953125 -6.265625 21.953125 -5.078125 Z M 21.953125 -5.078125 "/></g></g></g><g fill="#284030" fill-opacity="1"><g transform="translate(146.860102, 328.847335)"><g><path d="M 26.546875 -27.265625 C 25.617188 -27.210938 24.929688 -27.070312 24.484375 -26.84375 C 24.035156 -26.625 23.734375 -26.253906 23.578125 -25.734375 C 23.421875 -25.222656 23.34375 -24.460938 23.34375 -23.453125 L 23.34375 0.203125 L 22.421875 0.203125 L 5.78125 -25.515625 L 5.78125 -4.59375 C 5.78125 -3.5625 5.863281 -2.796875 6.03125 -2.296875 C 6.207031 -1.796875 6.546875 -1.429688 7.046875 -1.203125 C 7.554688 -0.984375 8.335938 -0.847656 9.390625 -0.796875 L 9.390625 0 C 8.441406 -0.0820312 7.09375 -0.125 5.34375 -0.125 C 3.757812 -0.125 2.535156 -0.0820312 1.671875 0 L 1.671875 -0.796875 C 2.585938 -0.847656 3.269531 -0.984375 3.71875 -1.203125 C 4.164062 -1.429688 4.46875 -1.800781 4.625 -2.3125 C 4.789062 -2.832031 4.875 -3.59375 4.875 -4.59375 L 4.875 -23.859375 C 4.875 -24.859375 4.789062 -25.582031 4.625 -26.03125 C 4.46875 -26.476562 4.171875 -26.78125 3.734375 -26.9375 C 3.304688 -27.101562 2.617188 -27.210938 1.671875 -27.265625 L 1.671875 -28.046875 C 2.535156 -27.972656 3.757812 -27.9375 5.34375 -27.9375 C 6.53125 -27.9375 7.5625 -27.972656 8.4375 -28.046875 L 22.421875 -6.5 L 22.421875 -23.453125 C 22.421875 -24.484375 22.332031 -25.25 22.15625 -25.75 C 21.988281 -26.257812 21.65625 -26.625 21.15625 -26.84375 C 20.65625 -27.070312 19.878906 -27.210938 18.828125 -27.265625 L 18.828125 -28.046875 C 19.773438 -27.972656 21.117188 -27.9375 22.859375 -27.9375 C 24.441406 -27.9375 25.671875 -27.972656 26.546875 -28.046875 Z M 26.546875 -27.265625 "/></g></g></g><g fill="#284030" fill-opacity="1"><g transform="translate(182.761837, 328.847335)"><g/></g></g><g fill="#284030" fill-opacity="1"><g transform="translate(200.554998, 328.847335)"><g><path d="M 21.953125 -5.078125 C 21.953125 -3.566406 22.046875 -1.875 22.234375 0 C 20.429688 -0.0820312 17.40625 -0.125 13.15625 -0.125 C 8.082031 -0.125 4.253906 -0.0820312 1.671875 0 L 1.671875 -0.796875 C 2.617188 -0.847656 3.304688 -0.953125 3.734375 -1.109375 C 4.171875 -1.265625 4.46875 -1.566406 4.625 -2.015625 C 4.789062 -2.460938 4.875 -3.191406 4.875 -4.203125 L 4.875 -23.859375 C 4.875 -24.859375 4.789062 -25.582031 4.625 -26.03125 C 4.46875 -26.476562 4.171875 -26.78125 3.734375 -26.9375 C 3.304688 -27.101562 2.617188 -27.210938 1.671875 -27.265625 L 1.671875 -28.046875 C 4.253906 -27.972656 8.082031 -27.9375 13.15625 -27.9375 C 17.039062 -27.9375 19.800781 -27.972656 21.4375 -28.046875 C 21.25 -26.304688 21.15625 -24.75 21.15625 -23.375 C 21.15625 -22.34375 21.195312 -21.523438 21.28125 -20.921875 L 20.375 -20.921875 C 20.1875 -22.640625 19.945312 -23.914062 19.65625 -24.75 C 19.363281 -25.582031 18.875 -26.1875 18.1875 -26.5625 C 17.5 -26.945312 16.457031 -27.140625 15.0625 -27.140625 L 11.765625 -27.140625 C 10.816406 -27.140625 10.125 -27.066406 9.6875 -26.921875 C 9.25 -26.773438 8.953125 -26.476562 8.796875 -26.03125 C 8.640625 -25.582031 8.5625 -24.859375 8.5625 -23.859375 L 8.5625 -14.5 L 11.171875 -14.5 C 12.097656 -14.5 12.8125 -14.71875 13.3125 -15.15625 C 13.8125 -15.59375 14.144531 -16.109375 14.3125 -16.703125 C 14.488281 -17.296875 14.628906 -18.039062 14.734375 -18.9375 L 14.859375 -19.734375 L 15.765625 -19.734375 C 15.691406 -18.617188 15.65625 -17.378906 15.65625 -16.015625 L 15.65625 -14.109375 C 15.65625 -12.753906 15.734375 -10.878906 15.890625 -8.484375 L 14.984375 -8.484375 C 14.953125 -8.660156 14.867188 -9.296875 14.734375 -10.390625 C 14.609375 -11.492188 14.25 -12.320312 13.65625 -12.875 C 13.0625 -13.425781 12.234375 -13.703125 11.171875 -13.703125 L 8.5625 -13.703125 L 8.5625 -4.203125 C 8.5625 -3.191406 8.640625 -2.460938 8.796875 -2.015625 C 8.953125 -1.566406 9.25 -1.269531 9.6875 -1.125 C 10.125 -0.976562 10.816406 -0.90625 11.765625 -0.90625 L 14.65625 -0.90625 C 16.300781 -0.90625 17.550781 -1.125 18.40625 -1.5625 C 19.257812 -2 19.882812 -2.695312 20.28125 -3.65625 C 20.675781 -4.625 20.96875 -6.046875 21.15625 -7.921875 L 22.078125 -7.921875 C 21.992188 -7.210938 21.953125 -6.265625 21.953125 -5.078125 Z M 21.953125 -5.078125 "/></g></g></g><g fill="#284030" fill-opacity="1"><g transform="translate(232.613111, 328.847335)"><g><path d="M 22.46875 -3.328125 C 23.101562 -1.691406 24.015625 -0.847656 25.203125 -0.796875 L 25.203125 0 C 24.140625 -0.0820312 22.726562 -0.125 20.96875 -0.125 C 18.6875 -0.125 16.992188 -0.0820312 15.890625 0 L 15.890625 -0.796875 C 16.890625 -0.847656 17.609375 -0.972656 18.046875 -1.171875 C 18.484375 -1.367188 18.703125 -1.734375 18.703125 -2.265625 C 18.703125 -2.710938 18.546875 -3.332031 18.234375 -4.125 L 15.8125 -10.625 L 6.21875 -10.625 L 4.59375 -6.421875 C 4.0625 -4.992188 3.796875 -3.910156 3.796875 -3.171875 C 3.796875 -2.347656 4.082031 -1.75 4.65625 -1.375 C 5.226562 -1.007812 6.09375 -0.816406 7.25 -0.796875 L 7.25 0 C 5.75 -0.0820312 4.226562 -0.125 2.6875 -0.125 C 1.5 -0.125 0.507812 -0.0820312 -0.28125 0 L -0.28125 -0.796875 C 1.039062 -1.109375 2.085938 -2.253906 2.859375 -4.234375 L 12.171875 -28.25 L 12.796875 -28.25 Z M 15.5 -11.40625 L 11.0625 -23.265625 L 6.53125 -11.40625 Z M 15.5 -11.40625 "/></g></g></g><g fill="#284030" fill-opacity="1"><g transform="translate(265.503339, 328.847335)"><g><path d="M 26.15625 -1.984375 C 25.539062 -1.085938 24.929688 -0.4375 24.328125 -0.03125 C 23.722656 0.363281 22.914062 0.5625 21.90625 0.5625 C 20.820312 0.5625 19.929688 0.242188 19.234375 -0.390625 C 18.535156 -1.023438 18.015625 -2.132812 17.671875 -3.71875 L 16.796875 -7.6875 C 16.484375 -9.0625 16.1875 -10.117188 15.90625 -10.859375 C 15.632812 -11.597656 15.21875 -12.191406 14.65625 -12.640625 C 14.101562 -13.085938 13.328125 -13.3125 12.328125 -13.3125 L 8.5625 -13.3125 L 8.5625 -4.203125 C 8.5625 -3.191406 8.640625 -2.460938 8.796875 -2.015625 C 8.953125 -1.566406 9.25 -1.265625 9.6875 -1.109375 C 10.125 -0.953125 10.816406 -0.847656 11.765625 -0.796875 L 11.765625 0 C 10.554688 -0.0820312 8.878906 -0.125 6.734375 -0.125 C 4.460938 -0.125 2.773438 -0.0820312 1.671875 0 L 1.671875 -0.796875 C 2.617188 -0.847656 3.304688 -0.953125 3.734375 -1.109375 C 4.171875 -1.265625 4.46875 -1.566406 4.625 -2.015625 C 4.789062 -2.460938 4.875 -3.191406 4.875 -4.203125 L 4.875 -23.859375 C 4.875 -24.859375 4.789062 -25.582031 4.625 -26.03125 C 4.46875 -26.476562 4.171875 -26.78125 3.734375 -26.9375 C 3.304688 -27.101562 2.617188 -27.210938 1.671875 -27.265625 L 1.671875 -28.046875 C 2.773438 -27.972656 4.382812 -27.9375 6.5 -27.9375 L 10.78125 -27.96875 C 11.28125 -28 11.847656 -28.015625 12.484375 -28.015625 C 15.546875 -28.015625 17.898438 -27.375 19.546875 -26.09375 C 21.203125 -24.8125 22.03125 -23.15625 22.03125 -21.125 C 22.03125 -20.09375 21.785156 -19.050781 21.296875 -18 C 20.804688 -16.957031 19.988281 -16.019531 18.84375 -15.1875 C 17.695312 -14.363281 16.195312 -13.804688 14.34375 -13.515625 L 14.8125 -13.4375 C 16.5625 -13.144531 17.832031 -12.613281 18.625 -11.84375 C 19.414062 -11.082031 20 -9.867188 20.375 -8.203125 L 21.359375 -4.15625 C 21.617188 -2.945312 21.894531 -2.101562 22.1875 -1.625 C 22.476562 -1.144531 22.875 -0.90625 23.375 -0.90625 C 23.820312 -0.90625 24.195312 -1.023438 24.5 -1.265625 C 24.8125 -1.503906 25.164062 -1.890625 25.5625 -2.421875 Z M 11.484375 -27.265625 C 10.671875 -27.265625 10.054688 -27.171875 9.640625 -26.984375 C 9.234375 -26.796875 8.953125 -26.460938 8.796875 -25.984375 C 8.640625 -25.515625 8.5625 -24.804688 8.5625 -23.859375 L 8.5625 -14.109375 L 11.21875 -14.109375 C 13.832031 -14.109375 15.625 -14.6875 16.59375 -15.84375 C 17.570312 -17.007812 18.0625 -18.625 18.0625 -20.6875 C 18.0625 -22.851562 17.546875 -24.488281 16.515625 -25.59375 C 15.492188 -26.707031 13.816406 -27.265625 11.484375 -27.265625 Z M 11.484375 -27.265625 "/></g></g></g><g fill="#284030" fill-opacity="1"><g transform="translate(299.106824, 328.847335)"><g><path d="M 23.453125 -28.046875 C 23.273438 -26.171875 23.1875 -24.484375 23.1875 -22.984375 C 23.1875 -21.660156 23.222656 -20.578125 23.296875 -19.734375 L 22.390625 -19.734375 C 22.179688 -21.765625 21.914062 -23.273438 21.59375 -24.265625 C 21.28125 -25.253906 20.726562 -25.976562 19.9375 -26.4375 C 19.144531 -26.90625 17.925781 -27.140625 16.28125 -27.140625 L 14.140625 -27.140625 L 14.140625 -4.59375 C 14.140625 -3.488281 14.242188 -2.679688 14.453125 -2.171875 C 14.671875 -1.671875 15.039062 -1.328125 15.5625 -1.140625 C 16.09375 -0.960938 16.953125 -0.847656 18.140625 -0.796875 L 18.140625 0 C 16.773438 -0.0820312 14.835938 -0.125 12.328125 -0.125 C 9.679688 -0.125 7.722656 -0.0820312 6.453125 0 L 6.453125 -0.796875 C 7.640625 -0.847656 8.5 -0.960938 9.03125 -1.140625 C 9.5625 -1.328125 9.929688 -1.671875 10.140625 -2.171875 C 10.359375 -2.679688 10.46875 -3.488281 10.46875 -4.59375 L 10.46875 -27.140625 L 8.328125 -27.140625 C 6.679688 -27.140625 5.460938 -26.90625 4.671875 -26.4375 C 3.878906 -25.976562 3.320312 -25.253906 3 -24.265625 C 2.6875 -23.273438 2.425781 -21.765625 2.21875 -19.734375 L 1.3125 -19.734375 C 1.382812 -20.578125 1.421875 -21.660156 1.421875 -22.984375 C 1.421875 -24.484375 1.332031 -26.171875 1.15625 -28.046875 C 3.34375 -27.972656 7.066406 -27.9375 12.328125 -27.9375 C 17.554688 -27.9375 21.265625 -27.972656 23.453125 -28.046875 Z M 23.453125 -28.046875 "/></g></g></g><g fill="#284030" fill-opacity="1"><g transform="translate(331.640438, 328.847335)"><g><path d="M 28.328125 -27.265625 C 27.378906 -27.210938 26.6875 -27.101562 26.25 -26.9375 C 25.8125 -26.78125 25.515625 -26.476562 25.359375 -26.03125 C 25.203125 -25.582031 25.125 -24.859375 25.125 -23.859375 L 25.125 -4.203125 C 25.125 -3.191406 25.203125 -2.460938 25.359375 -2.015625 C 25.515625 -1.566406 25.8125 -1.265625 26.25 -1.109375 C 26.6875 -0.953125 27.378906 -0.847656 28.328125 -0.796875 L 28.328125 0 C 27.222656 -0.0820312 25.535156 -0.125 23.265625 -0.125 C 21.117188 -0.125 19.441406 -0.0820312 18.234375 0 L 18.234375 -0.796875 C 19.179688 -0.847656 19.875 -0.953125 20.3125 -1.109375 C 20.75 -1.265625 21.046875 -1.566406 21.203125 -2.015625 C 21.359375 -2.460938 21.4375 -3.191406 21.4375 -4.203125 L 21.4375 -13.703125 L 8.5625 -13.703125 L 8.5625 -4.203125 C 8.5625 -3.191406 8.640625 -2.460938 8.796875 -2.015625 C 8.953125 -1.566406 9.25 -1.265625 9.6875 -1.109375 C 10.125 -0.953125 10.816406 -0.847656 11.765625 -0.796875 L 11.765625 0 C 10.554688 -0.0820312 8.878906 -0.125 6.734375 -0.125 C 4.460938 -0.125 2.773438 -0.0820312 1.671875 0 L 1.671875 -0.796875 C 2.617188 -0.847656 3.304688 -0.953125 3.734375 -1.109375 C 4.171875 -1.265625 4.46875 -1.566406 4.625 -2.015625 C 4.789062 -2.460938 4.875 -3.191406 4.875 -4.203125 L 4.875 -23.859375 C 4.875 -24.859375 4.789062 -25.582031 4.625 -26.03125 C 4.46875 -26.476562 4.171875 -26.78125 3.734375 -26.9375 C 3.304688 -27.101562 2.617188 -27.210938 1.671875 -27.265625 L 1.671875 -28.046875 C 2.773438 -27.972656 4.460938 -27.9375 6.734375 -27.9375 C 8.847656 -27.9375 10.523438 -27.972656 11.765625 -28.046875 L 11.765625 -27.265625 C 10.816406 -27.210938 10.125 -27.101562 9.6875 -26.9375 C 9.25 -26.78125 8.953125 -26.476562 8.796875 -26.03125 C 8.640625 -25.582031 8.5625 -24.859375 8.5625 -23.859375 L 8.5625 -14.5 L 21.4375 -14.5 L 21.4375 -23.859375 C 21.4375 -24.859375 21.359375 -25.582031 21.203125 -26.03125 C 21.046875 -26.476562 20.75 -26.78125 20.3125 -26.9375 C 19.875 -27.101562 19.179688 -27.210938 18.234375 -27.265625 L 18.234375 -28.046875 C 19.441406 -27.972656 21.117188 -27.9375 23.265625 -27.9375 C 25.535156 -27.9375 27.222656 -27.972656 28.328125 -28.046875 Z M 28.328125 -27.265625 "/></g></g></g><g fill="#284030" fill-opacity="1"><g transform="translate(64.483452, 360.39044)"><g><path d="M 3.5 -10.484375 L 3.5 -6.3125 L 9.515625 -6.3125 L 9.515625 -4.84375 L 3.5 -4.84375 L 3.5 0 L 1.796875 0 L 1.796875 -11.984375 L 10.25 -11.984375 L 10.25 -10.484375 Z M 3.5 -10.484375 "/></g></g></g><g fill="#284030" fill-opacity="1"><g transform="translate(89.027773, 360.39044)"><g><path d="M 7.203125 0.140625 C 5.992188 0.140625 4.90625 -0.125 3.9375 -0.65625 C 2.96875 -1.1875 2.207031 -1.921875 1.65625 -2.859375 C 1.101562 -3.796875 0.828125 -4.835938 0.828125 -5.984375 C 0.828125 -7.140625 1.101562 -8.179688 1.65625 -9.109375 C 2.207031 -10.046875 2.96875 -10.78125 3.9375 -11.3125 C 4.90625 -11.84375 5.992188 -12.109375 7.203125 -12.109375 C 8.398438 -12.109375 9.484375 -11.84375 10.453125 -11.3125 C 11.421875 -10.78125 12.175781 -10.050781 12.71875 -9.125 C 13.269531 -8.195312 13.546875 -7.148438 13.546875 -5.984375 C 13.546875 -4.828125 13.269531 -3.78125 12.71875 -2.84375 C 12.175781 -1.914062 11.421875 -1.1875 10.453125 -0.65625 C 9.484375 -0.125 8.398438 0.140625 7.203125 0.140625 Z M 7.203125 -1.390625 C 8.078125 -1.390625 8.863281 -1.585938 9.5625 -1.984375 C 10.269531 -2.378906 10.828125 -2.925781 11.234375 -3.625 C 11.640625 -4.332031 11.84375 -5.117188 11.84375 -5.984375 C 11.84375 -6.847656 11.640625 -7.628906 11.234375 -8.328125 C 10.828125 -9.035156 10.269531 -9.585938 9.5625 -9.984375 C 8.863281 -10.390625 8.078125 -10.59375 7.203125 -10.59375 C 6.328125 -10.59375 5.53125 -10.390625 4.8125 -9.984375 C 4.101562 -9.585938 3.546875 -9.035156 3.140625 -8.328125 C 2.734375 -7.628906 2.53125 -6.847656 2.53125 -5.984375 C 2.53125 -5.117188 2.734375 -4.332031 3.140625 -3.625 C 3.546875 -2.925781 4.101562 -2.378906 4.8125 -1.984375 C 5.53125 -1.585938 6.328125 -1.390625 7.203125 -1.390625 Z M 7.203125 -1.390625 "/></g></g></g><g fill="#284030" fill-opacity="1"><g transform="translate(117.077323, 360.39044)"><g><path d="M 6.765625 0.140625 C 5.160156 0.140625 3.910156 -0.3125 3.015625 -1.21875 C 2.128906 -2.132812 1.6875 -3.453125 1.6875 -5.171875 L 1.6875 -11.984375 L 3.40625 -11.984375 L 3.40625 -5.234375 C 3.40625 -2.671875 4.53125 -1.390625 6.78125 -1.390625 C 7.875 -1.390625 8.707031 -1.703125 9.28125 -2.328125 C 9.863281 -2.960938 10.15625 -3.929688 10.15625 -5.234375 L 10.15625 -11.984375 L 11.828125 -11.984375 L 11.828125 -5.171875 C 11.828125 -3.441406 11.378906 -2.125 10.484375 -1.21875 C 9.597656 -0.3125 8.359375 0.140625 6.765625 0.140625 Z M 6.765625 0.140625 "/></g></g></g><g fill="#284030" fill-opacity="1"><g transform="translate(144.289035, 360.39044)"><g><path d="M 12.09375 -11.984375 L 12.09375 0 L 10.6875 0 L 3.5 -8.9375 L 3.5 0 L 1.796875 0 L 1.796875 -11.984375 L 3.203125 -11.984375 L 10.390625 -3.046875 L 10.390625 -11.984375 Z M 12.09375 -11.984375 "/></g></g></g><g fill="#284030" fill-opacity="1"><g transform="translate(171.859831, 360.39044)"><g><path d="M 1.796875 -11.984375 L 6.84375 -11.984375 C 8.113281 -11.984375 9.238281 -11.726562 10.21875 -11.21875 C 11.195312 -10.71875 11.957031 -10.015625 12.5 -9.109375 C 13.039062 -8.203125 13.3125 -7.160156 13.3125 -5.984375 C 13.3125 -4.804688 13.039062 -3.765625 12.5 -2.859375 C 11.957031 -1.953125 11.195312 -1.25 10.21875 -0.75 C 9.238281 -0.25 8.113281 0 6.84375 0 L 1.796875 0 Z M 6.734375 -1.484375 C 7.710938 -1.484375 8.566406 -1.671875 9.296875 -2.046875 C 10.035156 -2.429688 10.601562 -2.960938 11 -3.640625 C 11.394531 -4.316406 11.59375 -5.097656 11.59375 -5.984375 C 11.59375 -6.878906 11.394531 -7.664062 11 -8.34375 C 10.601562 -9.019531 10.035156 -9.546875 9.296875 -9.921875 C 8.566406 -10.296875 7.710938 -10.484375 6.734375 -10.484375 L 3.5 -10.484375 L 3.5 -1.484375 Z M 6.734375 -1.484375 "/></g></g></g><g fill="#284030" fill-opacity="1"><g transform="translate(199.670006, 360.39044)"><g><path d="M 9.421875 -3 L 3.0625 -3 L 1.75 0 L -0.015625 0 L 5.40625 -11.984375 L 7.09375 -11.984375 L 12.546875 0 L 10.75 0 Z M 8.828125 -4.359375 L 6.25 -10.234375 L 3.65625 -4.359375 Z M 8.828125 -4.359375 "/></g></g></g><g fill="#284030" fill-opacity="1"><g transform="translate(225.872896, 360.39044)"><g><path d="M 4.171875 -10.484375 L 0.0625 -10.484375 L 0.0625 -11.984375 L 9.96875 -11.984375 L 9.96875 -10.484375 L 5.875 -10.484375 L 5.875 0 L 4.171875 0 Z M 4.171875 -10.484375 "/></g></g></g><g fill="#284030" fill-opacity="1"><g transform="translate(249.596476, 360.39044)"><g><path d="M 1.796875 -11.984375 L 3.5 -11.984375 L 3.5 0 L 1.796875 0 Z M 1.796875 -11.984375 "/></g></g></g><g fill="#284030" fill-opacity="1"><g transform="translate(268.583708, 360.39044)"><g><path d="M 7.203125 0.140625 C 5.992188 0.140625 4.90625 -0.125 3.9375 -0.65625 C 2.96875 -1.1875 2.207031 -1.921875 1.65625 -2.859375 C 1.101562 -3.796875 0.828125 -4.835938 0.828125 -5.984375 C 0.828125 -7.140625 1.101562 -8.179688 1.65625 -9.109375 C 2.207031 -10.046875 2.96875 -10.78125 3.9375 -11.3125 C 4.90625 -11.84375 5.992188 -12.109375 7.203125 -12.109375 C 8.398438 -12.109375 9.484375 -11.84375 10.453125 -11.3125 C 11.421875 -10.78125 12.175781 -10.050781 12.71875 -9.125 C 13.269531 -8.195312 13.546875 -7.148438 13.546875 -5.984375 C 13.546875 -4.828125 13.269531 -3.78125 12.71875 -2.84375 C 12.175781 -1.914062 11.421875 -1.1875 10.453125 -0.65625 C 9.484375 -0.125 8.398438 0.140625 7.203125 0.140625 Z M 7.203125 -1.390625 C 8.078125 -1.390625 8.863281 -1.585938 9.5625 -1.984375 C 10.269531 -2.378906 10.828125 -2.925781 11.234375 -3.625 C 11.640625 -4.332031 11.84375 -5.117188 11.84375 -5.984375 C 11.84375 -6.847656 11.640625 -7.628906 11.234375 -8.328125 C 10.828125 -9.035156 10.269531 -9.585938 9.5625 -9.984375 C 8.863281 -10.390625 8.078125 -10.59375 7.203125 -10.59375 C 6.328125 -10.59375 5.53125 -10.390625 4.8125 -9.984375 C 4.101562 -9.585938 3.546875 -9.035156 3.140625 -8.328125 C 2.734375 -7.628906 2.53125 -6.847656 2.53125 -5.984375 C 2.53125 -5.117188 2.734375 -4.332031 3.140625 -3.625 C 3.546875 -2.925781 4.101562 -2.378906 4.8125 -1.984375 C 5.53125 -1.585938 6.328125 -1.390625 7.203125 -1.390625 Z M 7.203125 -1.390625 "/></g></g></g><g fill="#284030" fill-opacity="1"><g transform="translate(296.633262, 360.39044)"><g><path d="M 12.09375 -11.984375 L 12.09375 0 L 10.6875 0 L 3.5 -8.9375 L 3.5 0 L 1.796875 0 L 1.796875 -11.984375 L 3.203125 -11.984375 L 10.390625 -3.046875 L 10.390625 -11.984375 Z M 12.09375 -11.984375 "/></g></g></g><path fill="#284030" d="M 258.664062 157.855469 C 254.9375 158.320312 251.027344 156.335938 248.9375 153.488281 C 247.25 151.191406 246.757812 148.226562 248.597656 145.921875 C 251.320312 144.78125 253.597656 146.117188 254.847656 148.550781 C 256.488281 151.734375 255.519531 155.117188 258.664062 157.855469 " fill-opacity="1" fill-rule="evenodd"/><path fill="#284030" d="M 278.679688 157.066406 C 275.433594 158.730469 271.203125 158.21875 268.34375 156.308594 C 266.039062 154.769531 264.605469 152.21875 265.523438 149.503906 C 267.636719 147.558594 270.160156 148.027344 272.109375 149.828125 C 274.667969 152.195312 274.902344 155.617188 278.679688 157.066406 " fill-opacity="1" fill-rule="evenodd"/><path fill="#284030" d="M 272.914062 132.636719 C 269.984375 130.492188 265.757812 130.332031 262.65625 131.757812 C 260.148438 132.902344 258.34375 135.175781 258.816406 137.984375 C 260.582031 140.230469 263.132812 140.167969 265.328125 138.703125 C 268.207031 136.78125 268.980469 133.46875 272.914062 132.636719 " fill-opacity="1" fill-rule="evenodd"/><path fill="#284030" d="M 290.035156 142.40625 C 288.128906 139.519531 284.398438 137.976562 281.160156 138.214844 C 278.539062 138.410156 276.167969 139.839844 275.660156 142.507812 C 276.5 145.101562 278.796875 145.894531 281.246094 145.3125 C 284.453125 144.550781 286.242188 141.84375 290.035156 142.40625 " fill-opacity="1" fill-rule="evenodd"/><path fill="#284030" d="M 251.171875 116.640625 C 248.019531 117.453125 245.503906 120.296875 244.730469 123.261719 C 244.105469 125.648438 244.652344 128.191406 246.871094 129.460938 C 249.425781 129.507812 250.828125 127.703125 251.0625 125.351562 C 251.367188 122.261719 249.507812 119.839844 251.171875 116.640625 " fill-opacity="1" fill-rule="evenodd"/><path fill="#284030" d="M 270.984375 111.066406 C 267.34375 110.183594 263.242188 111.699219 260.84375 114.289062 C 258.914062 116.371094 258.085938 119.257812 259.648438 121.753906 C 262.21875 123.195312 264.632812 122.125 266.148438 119.863281 C 268.136719 116.886719 267.558594 113.417969 270.984375 111.066406 " fill-opacity="1" fill-rule="evenodd"/><path fill="#284030" d="M 290.894531 135.949219 C 287.203125 137.511719 282.617188 136.617188 279.636719 134.300781 C 277.234375 132.429688 275.863281 129.527344 277.085938 126.625 C 279.550781 124.660156 282.28125 125.371094 284.269531 127.5 C 286.882812 130.296875 286.875 134.058594 290.894531 135.949219 " fill-opacity="1" fill-rule="evenodd"/><path fill="#284030" d="M 294.007812 110.34375 C 290.371094 107.945312 285.292969 108 281.660156 109.894531 C 278.722656 111.414062 276.695312 114.246094 277.425781 117.585938 C 279.671875 120.167969 284.324219 119.226562 286.539062 116.945312 C 288.890625 114.519531 289.992188 111.398438 294.007812 110.34375 " fill-opacity="1" fill-rule="evenodd"/><path fill="#284030" d="M 271.8125 87.269531 C 269.160156 85.386719 265.375 85.292969 262.605469 86.605469 C 260.375 87.667969 258.789062 89.730469 259.246094 92.238281 C 260.859375 94.230469 263.140625 94.140625 265.089844 92.804688 C 267.648438 91.042969 268.296875 88.0625 271.8125 87.269531 " fill-opacity="1" fill-rule="evenodd"/><path fill="#284030" d="M 262.546875 109.34375 C 259.476562 111.496094 255.105469 111.574219 251.929688 110.039062 C 249.367188 108.804688 247.550781 106.414062 248.097656 103.527344 C 249.96875 101.246094 252.597656 101.363281 254.835938 102.917969 C 257.769531 104.964844 258.496094 108.402344 262.546875 109.34375 " fill-opacity="1" fill-rule="evenodd"/><path fill="#284030" d="M 276.257812 108.8125 C 273.363281 110.089844 269.730469 109.429688 267.355469 107.636719 C 265.441406 106.1875 264.328125 103.910156 265.261719 101.609375 C 267.1875 100.027344 269.34375 100.5625 270.9375 102.222656 C 273.03125 104.394531 273.0625 107.367188 276.257812 108.8125 " fill-opacity="1" fill-rule="evenodd"/><path fill="#284030" d="M 282.535156 87.21875 C 279.410156 86.328125 275.800781 87.503906 273.632812 89.664062 C 271.882812 91.40625 271.070312 93.878906 272.339844 96.09375 C 274.523438 97.433594 276.644531 96.589844 278.035156 94.675781 C 279.863281 92.167969 279.484375 89.140625 282.535156 87.21875 " fill-opacity="1" fill-rule="evenodd"/><path fill="#284030" d="M 292.140625 84.40625 C 288.894531 84.605469 285.886719 86.914062 284.558594 89.671875 C 283.488281 91.898438 283.546875 94.5 285.476562 96.167969 C 287.980469 96.703125 289.703125 95.199219 290.378906 92.933594 C 291.265625 89.960938 289.902344 87.230469 292.140625 84.40625 " fill-opacity="1" fill-rule="evenodd"/><path fill="#284030" d="M 291.902344 79.78125 C 291.273438 82.203125 289.085938 84.132812 286.8125 84.726562 C 284.976562 85.207031 283.019531 84.78125 282.050781 83.074219 C 282.019531 81.105469 283.40625 80.027344 285.214844 79.851562 C 287.585938 79.621094 289.441406 81.054688 291.902344 79.78125 " fill-opacity="1" fill-rule="evenodd"/><path fill="#284030" d="M 219.367188 113.394531 C 216.339844 113.113281 213.230469 114.816406 211.613281 117.171875 C 210.308594 119.074219 209.984375 121.484375 211.53125 123.300781 C 213.765625 124.15625 215.574219 123.011719 216.523438 121.015625 C 217.769531 118.398438 216.894531 115.683594 219.367188 113.394531 " fill-opacity="1" fill-rule="evenodd"/><path fill="#284030" d="M 217.804688 71.917969 C 215.164062 74.546875 214.328125 78.8125 215.277344 82.1875 C 216.042969 84.914062 218.054688 87.109375 220.984375 87.078125 C 223.535156 85.640625 223.878906 83.046875 222.746094 80.582031 C 221.257812 77.351562 218.019531 76.042969 217.804688 71.917969 " fill-opacity="1" fill-rule="evenodd"/><path fill="#284030" d="M 217.007812 60.960938 C 217.957031 65.085938 216.191406 69.699219 213.242188 72.375 C 210.863281 74.53125 207.597656 75.425781 204.804688 73.628906 C 203.214844 70.703125 204.453125 68 207.027344 66.316406 C 210.40625 64.105469 214.3125 64.800781 217.007812 60.960938 " fill-opacity="1" fill-rule="evenodd"/><path fill="#284030" d="M 215.859375 45.121094 C 215.808594 49.085938 213.175781 52.875 209.898438 54.648438 C 207.257812 56.082031 204.089844 56.164062 201.953125 53.910156 C 201.160156 50.898438 202.886719 48.714844 205.597656 47.761719 C 209.160156 46.507812 212.554688 48.011719 215.859375 45.121094 " fill-opacity="1" fill-rule="evenodd"/><path fill="#284030" d="M 231.035156 33.589844 C 229.714844 38.046875 225.535156 41.492188 221.269531 42.449219 C 217.832031 43.222656 214.226562 42.3125 212.535156 39.082031 C 212.589844 35.429688 215.234375 33.511719 218.605469 33.300781 C 223.027344 33.019531 226.382812 35.796875 231.035156 33.589844 " fill-opacity="1" fill-rule="evenodd"/><path fill="#284030" d="M 210.433594 83.089844 C 210.703125 86.609375 208.667969 90.191406 205.902344 92.023438 C 203.671875 93.507812 200.867188 93.835938 198.789062 92.003906 C 197.84375 89.394531 199.199219 87.316406 201.535156 86.25 C 204.59375 84.855469 207.730469 85.921875 210.433594 83.089844 " fill-opacity="1" fill-rule="evenodd"/><path fill="#284030" d="M 222.574219 46.535156 C 219.558594 49.300781 218.445312 53.9375 219.328125 57.683594 C 220.042969 60.703125 222.15625 63.203125 225.363281 63.300781 C 228.230469 61.84375 228.722656 59.011719 227.59375 56.265625 C 226.109375 52.652344 222.621094 51.070312 222.574219 46.535156 " fill-opacity="1" fill-rule="evenodd"/><path fill="#284030" d="M 244.914062 30.414062 C 240.046875 31.269531 235.902344 35.273438 234.371094 39.664062 C 233.140625 43.203125 233.664062 47.125 236.871094 49.308594 C 240.738281 49.6875 243.082031 47.121094 243.714844 43.585938 C 244.542969 38.945312 242.019531 35.0625 244.914062 30.414062 " fill-opacity="1" fill-rule="evenodd"/><path fill="#284030" d="M 249.367188 63.523438 C 249.34375 67.242188 246.898438 70.820312 243.835938 72.503906 C 241.367188 73.867188 238.398438 73.964844 236.378906 71.863281 C 235.609375 69.042969 237.21875 66.984375 239.757812 66.070312 C 243.09375 64.871094 246.285156 66.257812 249.367188 63.523438 " fill-opacity="1" fill-rule="evenodd"/><path fill="#284030" d="M 235.441406 19.273438 C 235.488281 22.894531 233.175781 26.429688 230.226562 28.128906 C 227.84375 29.5 224.953125 29.65625 222.945312 27.644531 C 222.140625 24.914062 223.667969 22.875 226.125 21.9375 C 229.351562 20.703125 232.488281 21.992188 235.441406 19.273438 " fill-opacity="1" fill-rule="evenodd"/><path fill="#284030" d="M 214.757812 12.484375 C 212.285156 14.222656 211.027344 17.519531 211.320312 20.347656 C 211.558594 22.628906 212.867188 24.664062 215.210938 25.039062 C 217.449219 24.246094 218.082031 22.214844 217.515625 20.09375 C 216.769531 17.304688 214.363281 15.8125 214.757812 12.484375 " fill-opacity="1" fill-rule="evenodd"/><path fill="#284030" d="M 260.195312 34.066406 C 256.867188 33.507812 253.289062 35.136719 251.300781 37.613281 C 249.699219 39.613281 249.140625 42.257812 250.710938 44.394531 C 253.113281 45.519531 255.203125 44.402344 256.417969 42.273438 C 258.011719 39.472656 257.269531 36.402344 260.195312 34.066406 " fill-opacity="1" fill-rule="evenodd"/><path fill="#284030" d="M 254.644531 53.613281 C 253.527344 56.515625 250.554688 58.59375 247.65625 59.007812 C 245.320312 59.34375 242.964844 58.539062 242.003906 56.296875 C 242.238281 53.863281 244.105469 52.722656 246.363281 52.757812 C 249.332031 52.804688 251.421875 54.839844 254.644531 53.613281 " fill-opacity="1" fill-rule="evenodd"/><path fill="#284030" d="M 236.390625 87.554688 C 234.117188 89.601562 233.25 93.058594 233.890625 95.863281 C 234.402344 98.125 235.960938 100.007812 238.359375 100.105469 C 240.511719 99.035156 240.902344 96.921875 240.074219 94.859375 C 238.992188 92.152344 236.394531 90.945312 236.390625 87.554688 " fill-opacity="1" fill-rule="evenodd"/><path fill="#284030" d="M 251.089844 81.355469 C 250.039062 83.640625 247.539062 85.164062 245.183594 85.347656 C 243.277344 85.5 241.417969 84.734375 240.757812 82.871094 C 241.070312 80.921875 242.632812 80.097656 244.457031 80.242188 C 246.847656 80.4375 248.429688 82.179688 251.089844 81.355469 " fill-opacity="1" fill-rule="evenodd"/><path fill="#284030" d="M 272.722656 62.972656 C 272.007812 66.6875 268.894531 69.8125 265.515625 70.929688 C 262.789062 71.832031 259.800781 71.382812 258.164062 68.902344 C 257.921875 65.933594 259.910156 64.171875 262.625 63.730469 C 266.1875 63.148438 269.125 65.132812 272.722656 62.972656 " fill-opacity="1" fill-rule="evenodd"/><path fill="#284030" d="M 279.675781 66.273438 C 276.160156 66.203125 272.71875 68.425781 271.046875 71.285156 C 269.699219 73.585938 269.527344 76.394531 271.46875 78.363281 C 274.113281 79.15625 276.105469 77.691406 277.03125 75.308594 C 278.25 72.179688 277.015625 69.121094 279.675781 66.273438 " fill-opacity="1" fill-rule="evenodd"/><path fill="#284030" d="M 287.730469 68.3125 C 285.65625 68.269531 283.625 69.578125 282.644531 71.261719 C 281.847656 72.625 281.75 74.277344 282.890625 75.4375 C 284.449219 75.90625 285.621094 75.039062 286.171875 73.636719 C 286.890625 71.792969 286.160156 69.992188 287.730469 68.3125 " fill-opacity="1" fill-rule="evenodd"/><path fill="#284030" d="M 232.890625 104.566406 C 231.707031 108.035156 228.304688 110.617188 224.914062 111.230469 C 222.183594 111.734375 219.375 110.898438 218.140625 108.300781 C 218.304688 105.425781 220.449219 104 223.109375 103.941406 C 226.605469 103.863281 229.152344 106.15625 232.890625 104.566406 " fill-opacity="1" fill-rule="evenodd"/><path fill="#284030" d="M 267.039062 50.082031 C 263.730469 49.554688 260.1875 51.207031 258.238281 53.683594 C 256.664062 55.683594 256.136719 58.3125 257.710938 60.421875 C 260.105469 61.515625 262.175781 60.394531 263.359375 58.265625 C 264.917969 55.472656 264.152344 52.421875 267.039062 50.082031 " fill-opacity="1" fill-rule="evenodd"/><path fill="#284030" d="M 165.132812 61.171875 C 168.992188 63.800781 171.019531 68.859375 170.632812 73.238281 C 170.324219 76.769531 168.351562 79.945312 164.746094 80.582031 C 161.261719 79.410156 160.238281 76.292969 161.0625 72.992188 C 162.144531 68.671875 165.828125 66.308594 165.132812 61.171875 " fill-opacity="1" fill-rule="evenodd"/><path fill="#284030" d="M 154.417969 39.710938 C 157.308594 41.832031 158.726562 45.765625 158.3125 49.113281 C 157.976562 51.816406 156.375 54.195312 153.589844 54.585938 C 150.957031 53.59375 150.253906 51.171875 150.972656 48.667969 C 151.921875 45.382812 154.808594 43.667969 154.417969 39.710938 " fill-opacity="1" fill-rule="evenodd"/><path fill="#284030" d="M 125.863281 34.738281 C 128.882812 35.46875 131.320312 38.144531 132.101562 40.960938 C 132.730469 43.230469 132.246094 45.664062 130.148438 46.90625 C 127.714844 46.988281 126.347656 45.289062 126.089844 43.042969 C 125.753906 40.101562 127.496094 37.773438 125.863281 34.738281 " fill-opacity="1" fill-rule="evenodd"/><path fill="#284030" d="M 130.726562 63.296875 C 132.113281 66.96875 135.847656 69.617188 139.5 70.164062 C 142.445312 70.605469 145.425781 69.613281 146.660156 66.785156 C 146.382812 63.714844 144.039062 62.257812 141.183594 62.289062 C 137.441406 62.324219 134.78125 64.871094 130.726562 63.296875 " fill-opacity="1" fill-rule="evenodd"/><path fill="#284030" d="M 117.605469 57.976562 C 120.109375 60.691406 124.304688 61.6875 127.6875 60.871094 C 130.414062 60.214844 132.667969 58.296875 132.746094 55.398438 C 131.417969 52.808594 128.855469 52.367188 126.378906 53.398438 C 123.121094 54.753906 121.703125 57.917969 117.605469 57.976562 " fill-opacity="1" fill-rule="evenodd"/><path fill="#284030" d="M 111.066406 46.851562 C 111.65625 49.320312 113.828125 51.320312 116.117188 51.96875 C 117.96875 52.492188 119.953125 52.101562 120.976562 50.398438 C 121.054688 48.402344 119.667969 47.28125 117.84375 47.066406 C 115.441406 46.78125 113.535156 48.195312 111.066406 46.851562 " fill-opacity="1" fill-rule="evenodd"/><path fill="#284030" d="M 135.359375 30.007812 C 140.164062 31.0625 144.121094 35.210938 145.460938 39.640625 C 146.539062 43.214844 145.855469 47.089844 142.578125 49.125 C 138.71875 49.347656 136.492188 46.699219 136.007812 43.15625 C 135.375 38.507812 138.050781 34.753906 135.359375 30.007812 " fill-opacity="1" fill-rule="evenodd"/><path fill="#284030" d="M 121.257812 64.792969 C 124.761719 65.398438 127.75 68.273438 128.851562 71.429688 C 129.746094 73.976562 129.367188 76.792969 127.066406 78.367188 C 124.289062 78.648438 122.601562 76.808594 122.140625 74.265625 C 121.535156 70.929688 123.347656 68.132812 121.257812 64.792969 " fill-opacity="1" fill-rule="evenodd"/><path fill="#284030" d="M 105.851562 56.464844 C 109.660156 56.886719 113.0625 59.78125 114.460938 63.101562 C 115.585938 65.78125 115.367188 68.839844 113 70.683594 C 109.761719 70.769531 108.085938 69.296875 107.425781 66.59375 C 106.554688 63.046875 108.320312 59.917969 105.851562 56.464844 " fill-opacity="1" fill-rule="evenodd"/><path fill="#284030" d="M 101.378906 80.179688 C 103.476562 82.570312 107.058594 83.519531 109.980469 82.894531 C 112.339844 82.390625 114.320312 80.792969 114.449219 78.300781 C 112.972656 76.054688 111.175781 75.613281 109.019531 76.441406 C 106.195312 77.53125 104.898438 80.21875 101.378906 80.179688 " fill-opacity="1" fill-rule="evenodd"/><path fill="#284030" d="M 115.21875 88.261719 C 117.144531 90.128906 120.226562 90.675781 122.644531 89.945312 C 124.597656 89.359375 126.152344 87.875 126.085938 85.769531 C 124.691406 83.980469 123.148438 83.734375 121.386719 84.585938 C 119.085938 85.699219 118.1875 88.050781 115.21875 88.261719 " fill-opacity="1" fill-rule="evenodd"/><path fill="#284030" d="M 129.464844 91.710938 C 132.34375 93.714844 136.433594 93.773438 139.394531 92.328125 C 141.789062 91.160156 143.480469 88.921875 142.960938 86.21875 C 140.785156 84.207031 138.738281 84.210938 136.652344 85.675781 C 133.917969 87.597656 133.25 90.820312 129.464844 91.710938 " fill-opacity="1" fill-rule="evenodd"/><path fill="#284030" d="M 142.953125 96.832031 C 145.511719 99.324219 149.617188 100.058594 152.835938 99.09375 C 155.4375 98.316406 157.507812 96.347656 157.433594 93.539062 C 155.574219 91.160156 153.519531 90.828125 151.179688 91.953125 C 148.109375 93.429688 146.90625 96.558594 142.953125 96.832031 " fill-opacity="1" fill-rule="evenodd"/><path fill="#284030" d="M 165.996094 100.433594 C 163.222656 104.21875 163.015625 109.6875 164.851562 113.699219 C 166.332031 116.933594 169.269531 119.273438 172.894531 118.664062 C 175.65625 115.816406 175.710938 113.085938 173.828125 110.246094 C 171.347656 106.519531 167.070312 105.523438 165.996094 100.433594 " fill-opacity="1" fill-rule="evenodd"/><path fill="#284030" d="M 173.832031 57.925781 C 173.082031 62.566406 175.378906 67.546875 178.84375 70.289062 C 181.640625 72.507812 185.324219 73.257812 188.285156 71.058594 C 189.457031 67.257812 188.265625 64.796875 185.285156 63.121094 C 181.378906 60.921875 177.105469 61.984375 173.832031 57.925781 " fill-opacity="1" fill-rule="evenodd"/><path fill="#284030" d="M 163.726562 47.480469 C 164.570312 50.53125 167.371094 52.933594 170.265625 53.644531 C 172.597656 54.21875 175.066406 53.640625 176.261719 51.464844 C 175.914062 48.808594 174.492188 47.632812 172.195312 47.445312 C 169.191406 47.191406 166.867188 49.046875 163.726562 47.480469 " fill-opacity="1" fill-rule="evenodd"/><path fill="#284030" d="M 150.484375 27.90625 C 150.402344 31.546875 152.699219 35.121094 155.648438 36.855469 C 158.03125 38.261719 160.9375 38.441406 162.972656 36.4375 C 163.464844 33.398438 162.289062 31.636719 159.824219 30.667969 C 156.59375 29.402344 153.425781 30.667969 150.484375 27.90625 " fill-opacity="1" fill-rule="evenodd"/><path fill="#284030" d="M 184.167969 30.375 C 187.226562 31.875 189.203125 35.328125 189.375 38.53125 C 189.507812 41.121094 188.40625 43.617188 185.859375 44.445312 C 183.125 43.539062 182.167969 41.800781 182.425781 39.335938 C 182.765625 36.097656 185.191406 34.011719 184.167969 30.375 " fill-opacity="1" fill-rule="evenodd"/><path fill="#284030" d="M 182.90625 13.882812 C 184.921875 18.238281 184.023438 23.765625 181.371094 27.417969 C 179.234375 30.363281 175.816406 32.109375 172.300781 30.761719 C 170.109375 27.347656 170.605469 24.597656 173.070312 22.136719 C 176.308594 18.902344 180.804688 18.769531 182.90625 13.882812 " fill-opacity="1" fill-rule="evenodd"/><g clip-path="url(#cac04f9ef0)"><path fill="#284030" d="M 163.484375 9.871094 C 160.128906 11.292969 157.816406 14.851562 157.449219 18.257812 C 157.148438 21 158.175781 23.726562 160.835938 24.765625 C 163.808594 23.964844 164.929688 22.164062 164.800781 19.523438 C 164.628906 16.058594 162.171875 13.691406 163.484375 9.871094 " fill-opacity="1" fill-rule="evenodd"/></g><path fill="#284030" d="M 198.175781 12.429688 C 194.265625 15.183594 192.273438 20.398438 192.742188 24.875 C 193.113281 28.484375 195.1875 31.703125 198.890625 32.300781 C 202.433594 31.042969 203.4375 27.832031 202.539062 24.472656 C 201.359375 20.0625 197.550781 17.699219 198.175781 12.429688 " fill-opacity="1" fill-rule="evenodd"/><path fill="#284030" d="M 149.910156 101.339844 C 153.476562 102.003906 156.492188 104.96875 157.578125 108.207031 C 158.457031 110.816406 158.042969 113.691406 155.675781 115.269531 C 152.613281 115.125 151.136719 113.621094 150.691406 111.019531 C 150.117188 107.605469 152.003906 104.773438 149.910156 101.339844 " fill-opacity="1" fill-rule="evenodd"/><path fill="#284030" d="M 131.167969 95.554688 C 134.222656 96.398438 136.632812 99.207031 137.339844 102.101562 C 137.914062 104.445312 137.335938 106.914062 135.15625 108.113281 C 132.5 107.765625 131.328125 106.339844 131.132812 104.046875 C 130.882812 101.027344 132.734375 98.703125 131.167969 95.554688 " fill-opacity="1" fill-rule="evenodd"/><path fill="#284030" d="M 118.5625 114.351562 C 118.289062 117.160156 119.855469 120.050781 122.035156 121.566406 C 123.792969 122.785156 126.023438 123.097656 127.710938 121.671875 C 128.269531 119.347656 127.460938 117.917969 125.613281 117.027344 C 123.191406 115.863281 120.671875 116.65625 118.5625 114.351562 " fill-opacity="1" fill-rule="evenodd"/><path fill="#284030" d="M 106.167969 106.394531 C 107.4375 109.175781 110.476562 111.042969 113.347656 111.273438 C 115.660156 111.464844 117.925781 110.542969 118.734375 108.28125 C 117.996094 105.800781 116.460938 104.898438 114.246094 105.066406 C 111.335938 105.285156 109.402344 107.40625 106.167969 106.394531 " fill-opacity="1" fill-rule="evenodd"/><path fill="#284030" d="M 98.085938 96.800781 C 99.683594 99.628906 103.074219 101.320312 106.128906 101.304688 C 108.59375 101.289062 110.90625 100.101562 111.550781 97.632812 C 110.542969 95.082031 108.835938 94.265625 106.503906 94.652344 C 103.449219 95.15625 101.601562 97.574219 98.085938 96.800781 " fill-opacity="1" fill-rule="evenodd"/><path fill="#284030" d="M 79.902344 96.304688 C 82.011719 98.273438 85.339844 98.800781 87.929688 97.96875 C 90.015625 97.296875 91.652344 95.667969 91.542969 93.40625 C 90.003906 91.511719 88.339844 91.277344 86.46875 92.226562 C 84.007812 93.472656 83.09375 96.023438 79.902344 96.304688 " fill-opacity="1" fill-rule="evenodd"/><path fill="#284030" d="M 100.441406 105.761719 C 103.585938 106.410156 106.210938 109.09375 107.113281 111.980469 C 107.847656 114.308594 107.433594 116.84375 105.304688 118.203125 C 102.597656 118.027344 101.308594 116.660156 100.964844 114.351562 C 100.511719 111.320312 102.234375 108.84375 100.441406 105.761719 " fill-opacity="1" fill-rule="evenodd"/><path fill="#284030" d="M 90.4375 77.121094 C 93.511719 77.496094 96.246094 79.871094 97.347656 82.574219 C 98.234375 84.753906 98.03125 87.230469 96.09375 88.703125 C 93.476562 88.746094 92.132812 87.535156 91.617188 85.34375 C 90.945312 82.457031 92.402344 79.941406 90.4375 77.121094 " fill-opacity="1" fill-rule="evenodd"/><path fill="#284030" d="M 90.238281 99.046875 C 93.167969 99.742188 95.546875 102.328125 96.316406 105.054688 C 96.9375 107.257812 96.476562 109.621094 94.449219 110.832031 C 91.917969 110.585938 90.75 109.277344 90.492188 107.101562 C 90.15625 104.246094 91.832031 101.980469 90.238281 99.046875 " fill-opacity="1" fill-rule="evenodd"/><g clip-path="url(#6e2675768b)"><path fill="#284030" d="M 74.679688 117.347656 C 76.257812 119.882812 79.433594 121.292969 82.234375 121.160156 C 84.496094 121.046875 86.566406 119.867188 87.066406 117.578125 C 86.035156 115.273438 84.4375 114.597656 82.316406 115.039062 C 79.53125 115.625 77.933594 117.921875 74.679688 117.347656 " fill-opacity="1" fill-rule="evenodd"/></g><path fill="#284030" d="M 80.878906 128.121094 C 83.855469 131.09375 88.675781 132.023438 92.480469 130.941406 C 95.550781 130.066406 98.019531 127.777344 97.972656 124.472656 C 95.820312 121.640625 93.410156 121.214844 90.640625 122.503906 C 87 124.199219 85.535156 127.859375 80.878906 128.121094 " fill-opacity="1" fill-rule="evenodd"/><path fill="#284030" d="M 117.933594 131.890625 C 120.019531 130.417969 122.992188 130.351562 125.15625 131.390625 C 126.902344 132.226562 128.144531 133.847656 127.777344 135.816406 C 126.203125 137.289062 124.71875 137.292969 123.195312 136.242188 C 121.191406 134.859375 120.691406 132.519531 117.933594 131.890625 " fill-opacity="1" fill-rule="evenodd"/><path fill="#284030" d="M 144.601562 149.441406 C 148.230469 147.972656 150.785156 144.1875 151.246094 140.53125 C 151.621094 137.582031 150.566406 134.632812 147.722656 133.46875 C 144.660156 133.8125 143.265625 136.191406 143.359375 139.035156 C 143.480469 142.765625 146.082031 145.359375 144.601562 149.441406 " fill-opacity="1" fill-rule="evenodd"/><path fill="#284030" d="M 125.460938 155.160156 C 128.664062 154.601562 131.398438 151.96875 132.410156 149.074219 C 133.226562 146.746094 132.882812 144.164062 130.773438 142.722656 C 128.230469 142.472656 126.683594 144.15625 126.261719 146.484375 C 125.707031 149.542969 127.371094 152.101562 125.460938 155.160156 " fill-opacity="1" fill-rule="evenodd"/><path fill="#284030" d="M 104.742188 151.453125 C 107.902344 152.230469 111.46875 150.917969 113.558594 148.679688 C 115.246094 146.875 115.96875 144.367188 114.617188 142.199219 C 112.386719 140.9375 110.292969 141.863281 108.96875 143.824219 C 107.238281 146.402344 107.722656 149.417969 104.742188 151.453125 " fill-opacity="1" fill-rule="evenodd"/><path fill="#284030" d="M 93.761719 135.65625 C 95.097656 132.847656 98.21875 131 101.136719 130.808594 C 103.492188 130.65625 105.78125 131.628906 106.566406 133.941406 C 106.148438 136.351562 104.199219 137.347656 101.953125 137.136719 C 98.996094 136.863281 97.070312 134.679688 93.761719 135.65625 " fill-opacity="1" fill-rule="evenodd"/><path fill="#284030" d="M 238.222656 154.351562 C 234.109375 153.292969 230.828125 149.59375 229.8125 145.730469 C 228.988281 142.613281 229.703125 139.292969 232.589844 137.636719 C 235.925781 137.566406 237.761719 139.917969 238.070312 142.988281 C 238.476562 147.019531 236.050781 150.175781 238.222656 154.351562 " fill-opacity="1" fill-rule="evenodd"/><g clip-path="url(#f5199ce24e)"><path fill="#284030" d="M 175.832031 154.105469 C 175.523438 160.148438 170.886719 168.179688 164.808594 169.628906 C 160.992188 170.539062 156.390625 170.335938 152.582031 171.691406 C 148.34375 173.199219 145.117188 175.300781 141.449219 176.015625 C 136.390625 176.304688 131.84375 172.972656 126.015625 172.21875 C 121.070312 171.875 117.144531 174.203125 112.460938 174.042969 C 107.171875 173.558594 101.96875 167.492188 94.113281 171.910156 C 89.546875 174.480469 86.511719 178.339844 80.695312 177.75 C 88.667969 179.695312 93.554688 172.5 99.210938 173.152344 C 104.25 173.917969 106.871094 177.5625 111.582031 178.71875 C 118.960938 180.382812 121.328125 176.457031 129.058594 180.460938 C 117.164062 183.75 120.039062 188.632812 111.875 190.128906 C 108.488281 190.632812 105.769531 189.828125 102.539062 189.039062 C 92.140625 186.367188 90.636719 193.429688 86.027344 190.015625 C 90.179688 194.015625 93.574219 187.683594 101.789062 191.207031 C 103.839844 192.195312 105.828125 192.960938 107.921875 193.398438 C 103.480469 198.964844 102.875 203.539062 94.707031 203.832031 C 104.027344 204.679688 105.207031 199.273438 109.789062 195.488281 C 113.296875 192.59375 114.085938 194.542969 118.738281 192.230469 C 120.953125 191.085938 122.40625 189.460938 124.511719 188.269531 C 130.734375 184.742188 138.359375 187.363281 145.023438 185.300781 C 150.058594 183.746094 154.375 181.761719 159.882812 181.917969 C 155.359375 186.21875 153.109375 194.074219 152.175781 194.929688 C 151.175781 196.121094 150.152344 196.535156 148.703125 197.039062 C 146.148438 197.878906 144.238281 198.304688 141.761719 199.570312 C 139.242188 201.054688 136.820312 202.785156 133.84375 203.0625 C 129.15625 203.40625 126.375 200.429688 122.03125 200.828125 C 119.53125 201.054688 117.710938 202.351562 116.390625 204.375 C 115.097656 206.257812 113.761719 207.597656 112.632812 209.671875 C 111.246094 212.441406 112.484375 216.539062 107.976562 217.972656 C 113.152344 217.199219 112.679688 212.492188 114.195312 210.621094 C 115.523438 208.914062 117.121094 207.710938 118.636719 206.203125 C 119.804688 204.964844 122.160156 204.699219 123.722656 205.167969 C 125.769531 205.777344 129.984375 209.03125 135.5 208.933594 C 130.75 216.660156 126.917969 212.03125 124.511719 217.277344 C 122.167969 222.386719 124.171875 223.40625 121.28125 225.683594 C 124.625 223.878906 123.722656 220.613281 126.042969 218.128906 C 126.378906 217.65625 126.691406 217.28125 127.21875 217.027344 C 129.171875 216.269531 131.015625 216.890625 133.785156 215.78125 C 139.539062 213.238281 140.875 207.246094 146.203125 206.152344 C 150.707031 205.226562 154.410156 205.804688 158.890625 202.128906 C 163.183594 198.613281 163.414062 195.199219 166.496094 192.457031 L 167.101562 201.394531 C 166.871094 203.441406 167.410156 206.449219 166.9375 208.371094 C 166.621094 209.984375 164.589844 213.417969 163.84375 215.429688 C 162.105469 220.433594 160.382812 221.355469 154.859375 223.96875 C 152.867188 224.910156 151.402344 226.515625 148.179688 226.675781 C 145.910156 226.792969 143.882812 225.703125 141.671875 227.859375 C 139.292969 230.179688 139.605469 229.21875 139.214844 232.128906 L 138.1875 234.46875 C 140.523438 233.386719 139.375 230.691406 141.144531 229.890625 L 144.113281 228.390625 C 145.765625 228.328125 146.632812 229.777344 152.109375 229.128906 L 162.105469 225.78125 C 161.355469 230.320312 160.101562 228.785156 158.472656 231.3125 C 157.847656 232.429688 157.21875 232.742188 156.636719 234.234375 L 156.011719 240.644531 C 155.972656 242.039062 155.636719 242.824219 154.695312 243.871094 C 157.574219 241.699219 156.695312 239.769531 157.777344 237.96875 C 159.183594 235.632812 156.855469 236.777344 160.867188 233.210938 C 162.070312 232.230469 163.09375 232.304688 164.617188 230.863281 C 166.730469 228.585938 167.222656 226.046875 168.339844 223.230469 C 169.894531 220.617188 170.917969 217.246094 172.210938 215.445312 C 176.308594 209.945312 175.546875 209.648438 177.054688 202.65625 C 178.15625 197.554688 176.039062 195.050781 181.636719 187.230469 C 183.894531 194.433594 192.316406 202.894531 187.210938 213.882812 L 183.128906 219.695312 C 181.285156 221.492188 179.164062 223.136719 177.976562 225.46875 C 176.230469 229.265625 178.457031 235.839844 177.425781 238.476562 C 176.09375 241.863281 172.359375 240.695312 172.195312 245.71875 C 172.164062 246.769531 171.941406 247.316406 171.257812 248.132812 C 173.335938 246.292969 172.429688 244.929688 173.464844 243.757812 C 175.554688 241.398438 178.792969 242.796875 180.246094 237.410156 L 180.941406 232.105469 C 181.089844 231.765625 181.175781 231.066406 181.273438 230.320312 C 181.328125 232.925781 182.171875 234.59375 184.21875 236.847656 C 185.53125 238.253906 186.136719 238.382812 187.640625 239.265625 C 189.578125 241.375 188.839844 241.289062 190.136719 243.054688 C 192.648438 246.398438 191.007812 245.1875 189.855469 248.628906 C 189.589844 249.496094 189.460938 250.234375 189.882812 251.101562 C 190.621094 245.789062 194.941406 247.582031 191.753906 241.902344 C 190.855469 240.132812 191.945312 240.34375 189.691406 237.457031 C 188.414062 235.738281 184.578125 234.519531 185.617188 228.957031 C 185.792969 228.40625 186.394531 227.515625 186.683594 226.804688 C 186.960938 226.058594 187.332031 224.507812 187.847656 223.964844 C 190.601562 220.410156 193.40625 217.25 195.40625 213.203125 L 195.722656 217.414062 C 195.957031 218.640625 196.710938 220.390625 196.769531 221.351562 C 196.753906 221.472656 196.757812 223.039062 196.925781 223.070312 C 196.984375 223.179688 194.453125 228.226562 196.925781 231.015625 C 197.523438 231.6875 200.15625 232.226562 199.84375 236.636719 C 201.136719 231.878906 198.273438 230.441406 198.136719 230.097656 C 196.976562 227.136719 199.457031 225.269531 199.910156 223.734375 C 199.976562 223.464844 200.09375 221.96875 200.148438 221.949219 C 200.613281 219.792969 200.035156 218.914062 200.089844 217.007812 C 200.347656 215.183594 200.78125 214.378906 200.660156 212.339844 C 200.566406 202.417969 198.957031 201.554688 195.542969 192.691406 C 193.914062 188.464844 192.695312 184.21875 193.148438 180.496094 C 197.039062 183.507812 202.042969 189.535156 203.332031 195.144531 C 203.808594 197.28125 203.621094 200.117188 204.070312 202.65625 C 205.578125 209.648438 204.832031 209.957031 208.917969 215.445312 C 210.210938 217.246094 211.230469 220.617188 212.789062 223.230469 C 213.902344 226.046875 214.394531 228.585938 216.511719 230.863281 C 217.863281 232.226562 220.203125 232.546875 222.339844 235.152344 C 222.746094 235.648438 222.886719 237.199219 223.351562 237.96875 C 224.433594 239.769531 223.558594 241.699219 226.433594 243.871094 C 224.289062 241.484375 225.605469 240.253906 224.835938 237.308594 C 224.609375 236.238281 224.875 235.53125 224.492188 234.234375 C 223.632812 231.71875 219.890625 228.75 219.652344 228.28125 C 219.386719 227.710938 219.1875 226.789062 219.023438 225.78125 L 229.015625 229.128906 C 235.941406 229.953125 235.925781 227.261719 238.519531 228.980469 C 241.066406 230.667969 240.527344 229.761719 241.289062 232.222656 L 242.105469 233.332031 C 241.625 231.914062 242.386719 230.191406 240.53125 228.898438 C 239.738281 228.347656 239.089844 227.039062 237.34375 226.628906 C 235.082031 226.101562 233.589844 227.421875 229.710938 225.921875 C 228.59375 225.449219 227.484375 224.554688 226.273438 223.96875 C 220.734375 221.347656 219.027344 220.433594 217.285156 215.429688 C 216.535156 213.417969 214.511719 209.984375 214.191406 208.371094 C 213.246094 204.558594 215.125 197.089844 214.632812 192.457031 C 219.132812 196.453125 219.367188 203.851562 230.40625 205.515625 C 234.539062 206.136719 236.339844 205.628906 239.648438 208.988281 C 242.375 211.839844 243.59375 213.960938 247.34375 215.78125 C 250.109375 216.890625 251.957031 216.269531 253.910156 217.027344 L 256.25 219.949219 C 257.503906 221.75 256.566406 223.914062 259.84375 225.683594 C 256.964844 223.410156 258.957031 222.402344 256.617188 217.277344 C 254.226562 212.046875 250.359375 216.648438 245.628906 208.933594 L 253.929688 206.847656 C 256.363281 205.734375 258.757812 202.371094 262.492188 206.203125 C 264.007812 207.710938 265.601562 208.914062 266.9375 210.621094 C 268.449219 212.488281 267.972656 217.199219 273.148438 217.972656 C 268.648438 216.539062 269.882812 212.441406 268.492188 209.671875 L 263.15625 202.472656 C 259.90625 199.683594 256.664062 200.160156 253.019531 201.792969 C 246.703125 204.628906 244.609375 202.449219 239.367188 199.570312 C 236.890625 198.304688 234.980469 197.878906 232.425781 197.039062 C 230.976562 196.535156 229.953125 196.121094 228.953125 194.929688 C 227.769531 193.847656 226.195312 186.628906 221.246094 181.917969 C 221.863281 181.898438 222.496094 181.886719 223.144531 181.890625 C 226.988281 182.023438 230.046875 183.457031 233.785156 184.359375 C 240.953125 188.066406 249.660156 184.328125 256.617188 188.269531 C 258.722656 189.460938 260.175781 191.085938 262.390625 192.230469 C 269.539062 195.78125 266.992188 190.542969 275.015625 199.339844 C 278.460938 203.117188 281.242188 204.304688 286.417969 203.832031 C 278.304688 203.542969 277.664062 199.027344 273.210938 193.398438 C 279.554688 192.070312 281.0625 188.691406 288.78125 190.761719 C 291.375 191.460938 293.007812 192.035156 295.101562 190.015625 C 290.476562 193.425781 288.996094 186.363281 278.589844 189.039062 C 273.859375 190.253906 268.992188 191.285156 264.628906 188.34375 C 261.332031 186.121094 261.132812 182.96875 252.070312 180.460938 C 259.792969 176.457031 262.171875 180.382812 269.546875 178.71875 C 275.640625 177.347656 278.882812 171.066406 286.050781 173.886719 C 290.886719 175.789062 294.46875 179.203125 300.433594 177.75 C 292.453125 178.558594 288.773438 170.449219 281.871094 170.3125 C 275.617188 170.421875 273.730469 173.292969 268.664062 174.042969 C 263.980469 174.203125 260.054688 171.875 255.113281 172.21875 C 249.285156 172.972656 244.738281 176.304688 239.683594 176.015625 C 236.011719 175.300781 232.785156 173.199219 228.542969 171.691406 C 224.734375 170.335938 220.136719 170.539062 216.316406 169.628906 C 213.859375 169.042969 210.664062 166.03125 208.507812 163.296875 C 205.199219 157.742188 205.820312 149.460938 208.90625 144.183594 C 212.964844 137.246094 212.609375 137.296875 219.855469 133.136719 C 223.558594 131.007812 229.238281 130.59375 233.101562 132.519531 C 238.96875 135.441406 244.355469 141.375 252.359375 144.171875 C 259.792969 146.765625 268.773438 139.582031 281.820312 151.128906 C 269.4375 138.023438 259.9375 144.113281 253.605469 141.136719 C 250.972656 139.84375 249.105469 138.71875 247.558594 137.601562 C 255.472656 136.394531 260.214844 129.175781 266.449219 125.753906 C 269.84375 123.964844 272.578125 123.683594 276.378906 123.664062 C 283.8125 123.9375 285.15625 126.125 291.589844 128.355469 C 285.148438 125.363281 284.324219 122.828125 276.46875 121.863281 C 260.46875 120.222656 257.066406 130.988281 247.90625 132.207031 C 242.414062 132.933594 240.53125 128.273438 234.324219 125.414062 C 239.730469 121.277344 242.171875 115.746094 243.457031 109.128906 C 243.921875 106.757812 245.410156 102.925781 247.523438 101.554688 C 250.441406 99.726562 255.695312 98.507812 259.089844 98.671875 C 269.796875 99.179688 289.085938 107.101562 293.894531 93.4375 C 287.679688 106.285156 269.402344 94.953125 256.957031 94.414062 C 253.789062 94.363281 251.164062 94.523438 248.421875 95.296875 C 259.742188 75.617188 271.308594 84.65625 281.882812 79.878906 C 283.78125 79 286.421875 77.601562 287.492188 75.675781 C 284.710938 79.28125 277.519531 80.546875 273.085938 80.328125 C 268.726562 80.113281 264.378906 79.261719 259.390625 80.914062 C 248.390625 84.804688 241.105469 97.382812 238.140625 107.96875 C 235.027344 119.105469 229.992188 120.664062 219.75 123.957031 C 213.777344 125.875 208.414062 128.199219 203.382812 132.355469 C 204.144531 127.699219 204.234375 121.261719 206.011719 116.507812 C 206.835938 114.308594 209.324219 109.675781 210.949219 108.019531 C 214.597656 104.429688 217.804688 106.019531 223.609375 100.226562 C 233.402344 90.449219 225.796875 86.648438 241.269531 80.238281 C 248.847656 77.097656 253.996094 74.742188 256.214844 66.148438 C 251.394531 77.222656 241.722656 74.808594 232.636719 78.546875 C 233.285156 70.945312 231.734375 59.996094 238.527344 54.597656 C 243.105469 51.144531 251.453125 48.914062 257.015625 46.703125 C 250.375 48.3125 242.484375 49.738281 237.226562 52.800781 C 230.339844 57.121094 229.1875 66.566406 228.503906 73.945312 C 227.828125 81.261719 224.960938 90.417969 219.027344 95.28125 C 214.714844 98.824219 209.113281 97.761719 200.609375 106.195312 C 188.769531 81.25 209.753906 81.648438 199.808594 59.164062 C 188.90625 34.507812 213.511719 38.742188 219.113281 26.558594 C 220.535156 23.191406 220.554688 20.304688 220.140625 16.71875 C 220.535156 37.863281 198.078125 28.148438 192.527344 44.660156 C 191.8125 46.949219 191.558594 48.957031 191.574219 51.078125 C 184.570312 46.34375 168.414062 39.992188 166.800781 32.390625 C 165.636719 26.929688 172.820312 24.679688 172.039062 12.941406 C 172.175781 24.007812 163.84375 25.78125 164.515625 32.722656 C 165.59375 43.851562 186.046875 51.339844 191.945312 59.882812 L 194.546875 67.820312 C 194.890625 75.257812 186.796875 77.453125 182.957031 87.652344 C 169.863281 81.742188 159.113281 92.019531 157.289062 70.347656 C 156.101562 56.222656 149.472656 54.820312 138.542969 51.59375 C 134.039062 50.269531 123.652344 48.910156 123.039062 42.824219 C 120.9375 50.148438 138.007812 54.707031 144.886719 58.234375 C 153.925781 62.871094 149.683594 69.730469 151.640625 79.339844 C 141.621094 74.628906 132.289062 81.417969 126.332031 80.835938 C 121.710938 80.386719 118.089844 71.777344 106.953125 73.328125 C 117.96875 72.96875 119.984375 81.929688 125.839844 83.46875 C 130.410156 84.667969 138.15625 81.726562 144.621094 82.640625 C 151.445312 83.609375 155.4375 93.027344 168.289062 94.480469 C 173.433594 95.074219 176.511719 95.515625 179.632812 99.996094 C 182.40625 103.984375 182.449219 106.910156 181.253906 111.574219 C 180.390625 114.960938 176.898438 121.183594 173.3125 122.351562 C 167.332031 118.949219 161.59375 119.78125 155.757812 117.789062 C 152.402344 116.640625 149.691406 114.53125 146.195312 113.449219 C 136.050781 110.179688 128.019531 111.835938 123.175781 103 C 120.015625 97.230469 117.03125 91.851562 110.40625 89.558594 C 104.144531 87.390625 102.816406 89.503906 98.179688 90.605469 C 96.042969 91.078125 94.507812 90.738281 92.402344 90.425781 C 90.128906 90.003906 88.246094 88.378906 86.230469 87.058594 C 87.976562 88.933594 89.652344 90.730469 92.21875 91.449219 C 102.238281 94.003906 101.558594 88.527344 109.539062 91.898438 C 115.097656 94.25 117.339844 99.632812 119.65625 104.734375 C 124.808594 116.09375 134.257812 115.1875 143.636719 119.074219 C 134.097656 120.421875 134.363281 122.039062 130.625 122.910156 C 128.554688 123.316406 125.832031 124.140625 123.808594 124.21875 C 121.53125 124.125 119.730469 123.253906 117.496094 122.855469 C 114.066406 122.410156 110.703125 122.71875 107.429688 122.164062 C 105.402344 121.691406 103.226562 120.410156 101.398438 119.394531 C 98.863281 117.984375 98.113281 117.136719 96.304688 114.976562 C 93.507812 111.621094 92.710938 113.273438 89.402344 111.675781 C 85.960938 109.949219 85.871094 111.710938 82.6875 112.402344 C 81.628906 112.617188 84.089844 112.636719 84.097656 112.636719 C 86.601562 112.441406 86.257812 111.804688 88.683594 113.230469 L 92.613281 114.421875 C 95.605469 115.234375 95.492188 119.121094 99.933594 122.054688 C 102.257812 123.511719 103.863281 124.867188 106.550781 125.730469 C 110.011719 126.664062 113.214844 126.597656 116.65625 127.355469 C 119.320312 128.128906 120.367188 129 123.488281 129.390625 C 126.292969 129.597656 128.734375 128.996094 131.488281 128.6875 C 135.175781 128.207031 135.929688 126.71875 141.808594 126.253906 C 139.910156 127.5 137.78125 131.085938 135.90625 133.042969 C 132.675781 136.417969 131.746094 137.996094 126.179688 137.972656 L 113.269531 135.652344 C 110.867188 135.59375 109.402344 136.824219 107.582031 138.050781 C 106.269531 138.933594 105.003906 139.117188 104.167969 140.78125 C 105.019531 139.386719 106.507812 139.1875 107.898438 138.585938 C 109.570312 137.867188 111.003906 136.757812 113.160156 137.113281 C 115.296875 137.460938 122.257812 140.847656 125.886719 141.40625 C 129.007812 141.886719 134.132812 141.257812 136.753906 139.257812 C 137.480469 138.683594 138.140625 138.066406 138.851562 137.480469 C 140.261719 136.394531 141.753906 135.566406 143.023438 134.300781 C 145.292969 131.871094 148.929688 129.640625 152.230469 128.933594 C 154.101562 128.472656 157.289062 129.152344 159.128906 129.433594 C 161.261719 129.753906 162.894531 130.871094 164.703125 131.5 C 166.128906 132.066406 169.71875 132.996094 171.753906 136.148438 C 174.207031 140.277344 176.152344 147.757812 175.832031 154.105469 " fill-opacity="1" fill-rule="nonzero"/></g><g fill="#284030" fill-opacity="1"><g transform="translate(156.136899, 275.52795)"><g><path d="M 4.171875 -10.484375 L 0.0625 -10.484375 L 0.0625 -11.96875 L 9.96875 -11.96875 L 9.96875 -10.484375 L 5.859375 -10.484375 L 5.859375 0 L 4.171875 0 Z M 4.171875 -10.484375 "/></g></g></g><g fill="#284030" fill-opacity="1"><g transform="translate(179.853277, 275.52795)"><g><path d="M 12.078125 -11.96875 L 12.078125 0 L 10.375 0 L 10.375 -5.328125 L 3.5 -5.328125 L 3.5 0 L 1.796875 0 L 1.796875 -11.96875 L 3.5 -11.96875 L 3.5 -6.828125 L 10.375 -6.828125 L 10.375 -11.96875 Z M 12.078125 -11.96875 "/></g></g></g><g fill="#284030" fill-opacity="1"><g transform="translate(207.416634, 275.52795)"><g><path d="M 10.484375 -1.484375 L 10.484375 0 L 1.796875 0 L 1.796875 -11.96875 L 10.234375 -11.96875 L 10.234375 -10.484375 L 3.5 -10.484375 L 3.5 -6.796875 L 9.5 -6.796875 L 9.5 -5.34375 L 3.5 -5.34375 L 3.5 -1.484375 Z M 10.484375 -1.484375 "/></g></g></g></svg>